<svg width="1920" height="364" viewBox="0 0 1920 364" fill="none" xmlns="http://www.w3.org/2000/svg">
<path d="M147.879 340.272L57.3802 320.817C-22.1803 303.714 -79 233.382 -79 152.004V58C-79 -57.9798 15.0202 -152 131 -152H1793.75C1914.03 -152 2009.74 -51.1713 2003.47 68.9446L1998.47 164.797C1991.21 303.879 1853.05 397.497 1721.18 352.684L1699.55 345.335C1684.24 340.129 1668.37 336.711 1652.26 335.148L1484.49 318.869C1448.96 315.422 1420.37 288.184 1415.21 252.866C1409.63 214.754 1376.95 186.5 1338.43 186.5H1209.09C1176.16 186.5 1143.69 178.754 1114.3 163.887L1011 111.629C971.107 91.4483 923.464 94.1602 886.119 118.738L884.745 119.642C850.294 142.315 806.704 145.999 768.937 129.429C728.271 111.587 681.115 117.31 645.897 144.361L595.665 182.946C554.133 214.847 501.14 227.896 449.544 218.927L347.381 201.168C300.932 193.094 256.831 224.504 249.278 271.04C241.512 318.879 195.261 350.457 147.879 340.272Z" fill="#DBCEBD"/>
</svg>
