<svg width="24" height="25" viewBox="0 0 24 25" fill="none" xmlns="http://www.w3.org/2000/svg">
<path d="M16.474 5.90801L18.592 8.02501M17.836 4.04301L12.109 9.77001C11.8131 10.0655 11.6113 10.442 11.529 10.852L11 13.5L13.648 12.97C14.058 12.888 14.434 12.687 14.73 12.391L20.457 6.66401C20.6291 6.49191 20.7656 6.2876 20.8588 6.06275C20.9519 5.83789 20.9998 5.59689 20.9998 5.35351C20.9998 5.11013 20.9519 4.86913 20.8588 4.64427C20.7656 4.41942 20.6291 4.21511 20.457 4.04301C20.2849 3.87091 20.0806 3.7344 19.8557 3.64126C19.6309 3.54812 19.3899 3.50018 19.1465 3.50018C18.9031 3.50018 18.6621 3.54812 18.4373 3.64126C18.2124 3.7344 18.0081 3.87091 17.836 4.04301Z" stroke="#67A329" stroke-width="2" stroke-linecap="round" stroke-linejoin="round"/>
<path d="M19 15.5V18.5C19 19.0304 18.7893 19.5391 18.4142 19.9142C18.0391 20.2893 17.5304 20.5 17 20.5H6C5.46957 20.5 4.96086 20.2893 4.58579 19.9142C4.21071 19.5391 4 19.0304 4 18.5V7.5C4 6.96957 4.21071 6.46086 4.58579 6.08579C4.96086 5.71071 5.46957 5.5 6 5.5H9" stroke="#67A329" stroke-width="2" stroke-linecap="round" stroke-linejoin="round"/>
</svg>
