<svg width="20" height="20" viewBox="0 0 20 20" fill="none" xmlns="http://www.w3.org/2000/svg">
<path d="M9.97897 1.25C8.25177 1.25 6.56336 1.76318 5.12725 2.72464C3.69113 3.6861 2.57182 5.05267 1.91085 6.65152C1.24988 8.25037 1.07694 10.0097 1.4139 11.707C1.75086 13.4044 2.58258 14.9635 3.8039 16.1872C5.02521 17.4109 6.58126 18.2442 8.27528 18.5819C9.96929 18.9195 11.7252 18.7462 13.3209 18.0839C14.9166 17.4217 16.2805 16.3002 17.2401 14.8612C18.1997 13.4223 18.7119 11.7306 18.7119 10C18.7119 7.67936 17.7918 5.45376 16.154 3.81282C14.5163 2.17187 12.2951 1.25 9.97897 1.25ZM8.73142 13.4937L5.61254 10.3687L6.60434 9.375L8.73142 11.5063L13.3536 6.875L14.3492 7.86625L8.73142 13.4937Z" fill="#67A329"/>
</svg>
