<svg width="24" height="25" viewBox="0 0 24 25" fill="none" xmlns="http://www.w3.org/2000/svg">
<path d="M8 14.5C7.71667 14.5 7.479 14.404 7.287 14.212C7.095 14.02 6.99933 13.7827 7 13.5C7 13.2167 7.096 12.979 7.288 12.787C7.48 12.595 7.71733 12.4993 8 12.5C8.28333 12.5 8.521 12.596 8.713 12.788C8.905 12.98 9.00067 13.2173 9 13.5C9 13.7833 8.904 14.021 8.712 14.213C8.52 14.405 8.28267 14.5007 8 14.5ZM12 14.5C11.7167 14.5 11.479 14.404 11.287 14.212C11.095 14.02 10.9993 13.7827 11 13.5C11 13.2167 11.096 12.979 11.288 12.787C11.48 12.595 11.7173 12.4993 12 12.5C12.2833 12.5 12.521 12.596 12.713 12.788C12.905 12.98 13.0007 13.2173 13 13.5C13 13.7833 12.904 14.021 12.712 14.213C12.52 14.405 12.2827 14.5007 12 14.5ZM16 14.5C15.7167 14.5 15.479 14.404 15.287 14.212C15.095 14.02 14.9993 13.7827 15 13.5C15 13.2167 15.096 12.979 15.288 12.787C15.48 12.595 15.7173 12.4993 16 12.5C16.2833 12.5 16.521 12.596 16.713 12.788C16.905 12.98 17.0007 13.2173 17 13.5C17 13.7833 16.904 14.021 16.712 14.213C16.52 14.405 16.2827 14.5007 16 14.5ZM3 22.5V4.5H6V2.5H8V4.5H16V2.5H18V4.5H21V22.5H3ZM5 20.5H19V10.5H5V20.5Z" fill="#67A329"/>
</svg>
