<svg width="28" height="29" viewBox="0 0 28 29" fill="none" xmlns="http://www.w3.org/2000/svg">
<path fill-rule="evenodd" clip-rule="evenodd" d="M16.7824 14.8891C16.6215 14.4341 16.3235 14.0402 15.9294 13.7616C15.5354 13.483 15.0646 13.3333 14.582 13.3333V12.75H13.4154V13.3333C12.7965 13.3333 12.203 13.5792 11.7654 14.0168C11.3279 14.4543 11.082 15.0478 11.082 15.6667C11.082 16.2855 11.3279 16.879 11.7654 17.3166C12.203 17.7542 12.7965 18 13.4154 18V20.3333C12.9079 20.3333 12.4756 20.0096 12.3146 19.5557C12.2907 19.4815 12.2522 19.4128 12.2013 19.3537C12.1504 19.2946 12.0881 19.2463 12.0183 19.2117C11.9484 19.1771 11.8722 19.1568 11.7944 19.1521C11.7165 19.1474 11.6385 19.1584 11.565 19.1844C11.4914 19.2104 11.4239 19.2508 11.3662 19.3034C11.3086 19.356 11.2621 19.4195 11.2295 19.4904C11.1968 19.5612 11.1788 19.6379 11.1763 19.7159C11.1738 19.7938 11.187 19.8715 11.215 19.9442C11.3759 20.3992 11.6739 20.7932 12.068 21.0718C12.462 21.3504 12.9328 21.5 13.4154 21.5V22.0833H14.582V21.5C15.2009 21.5 15.7944 21.2542 16.2319 20.8166C16.6695 20.379 16.9154 19.7855 16.9154 19.1667C16.9154 18.5478 16.6695 17.9543 16.2319 17.5168C15.7944 17.0792 15.2009 16.8333 14.582 16.8333V14.5C14.8233 14.4999 15.0587 14.5747 15.2557 14.7139C15.4527 14.8532 15.6017 15.0501 15.6822 15.2776C15.7337 15.4235 15.8411 15.5429 15.9807 15.6097C16.0498 15.6427 16.1247 15.6618 16.2012 15.6659C16.2777 15.67 16.3543 15.6589 16.4265 15.6334C16.4988 15.6079 16.5653 15.5684 16.6223 15.5172C16.6792 15.466 16.7256 15.4041 16.7586 15.3349C16.7916 15.2658 16.8108 15.1909 16.8148 15.1144C16.8189 15.0379 16.8079 14.9613 16.7824 14.8891ZM13.4154 14.5C13.1059 14.5 12.8092 14.6229 12.5904 14.8417C12.3716 15.0605 12.2487 15.3572 12.2487 15.6667C12.2487 15.9761 12.3716 16.2728 12.5904 16.4916C12.8092 16.7104 13.1059 16.8333 13.4154 16.8333V14.5ZM14.582 20.3333C14.8915 20.3333 15.1882 20.2104 15.407 19.9916C15.6258 19.7728 15.7487 19.4761 15.7487 19.1667C15.7487 18.8572 15.6258 18.5605 15.407 18.3417C15.1882 18.1229 14.8915 18 14.582 18V20.3333Z" fill="black"/>
<path fill-rule="evenodd" clip-rule="evenodd" d="M7.67127 5.52892C9.10277 4.82833 11.4513 4 14.0214 4C16.5379 4 18.8246 4.79392 20.2485 5.48517L20.329 5.52425C20.7584 5.73658 21.1049 5.93725 21.3487 6.1L19.1939 9.25C24.1615 14.3285 27.9987 24.9983 14.0214 24.9983C0.0441864 24.9983 3.7781 14.5222 8.78894 9.25L6.6481 6.1C6.81319 5.99208 7.0226 5.86667 7.27227 5.73367C7.39594 5.66717 7.52894 5.59833 7.67127 5.52892ZM17.809 9.208L19.5339 6.68625C17.9298 6.80175 16.0211 7.17858 14.1836 7.71058C12.8711 8.08975 11.4128 8.032 10.0624 7.78292C9.72205 7.71983 9.38409 7.64473 9.0491 7.55775L10.1691 9.20683C12.5695 10.0614 15.408 10.0614 17.809 9.208ZM9.49535 10.2008C12.3041 11.2858 15.6799 11.2858 18.4886 10.1997C19.661 11.4356 20.6418 12.8401 21.3983 14.3664C22.1869 15.9752 22.6163 17.5835 22.5463 18.9695C22.4786 20.3071 21.9524 21.4498 20.7508 22.2992C19.4984 23.1841 17.3919 23.8316 14.0209 23.8316C10.6463 23.8316 8.52994 23.1952 7.26585 22.3202C6.05544 21.4813 5.52402 20.3543 5.44877 19.0348C5.37002 17.664 5.79002 16.0639 6.57577 14.444C7.32535 12.8993 8.37127 11.4124 9.49535 10.2008ZM8.82452 6.28433C9.29119 6.42317 9.77885 6.54392 10.2735 6.6355C11.5277 6.8665 12.7854 6.90033 13.8587 6.58942C15.1095 6.22503 16.3816 5.93846 17.6679 5.73133C16.5945 5.40817 15.3392 5.16667 14.0209 5.16667C12.0113 5.16667 10.137 5.72725 8.82452 6.28433Z" fill="black"/>
</svg>
