<svg width="30" height="30" viewBox="0 0 30 30" fill="none" xmlns="http://www.w3.org/2000/svg">
<path d="M7.30078 23.75V12.5C7.30078 10.5109 8.09096 8.60322 9.49748 7.1967C10.904 5.79018 12.8117 5 14.8008 5C16.7899 5 18.6976 5.79018 20.1041 7.1967C21.5106 8.60322 22.3008 10.5109 22.3008 12.5V23.75M7.30078 23.75H22.3008M7.30078 23.75H4.80078M22.3008 23.75H24.8008M13.5508 27.5H16.0508" stroke="#B5B5B5" stroke-width="2" stroke-linecap="round" stroke-linejoin="round"/>
<path d="M22 11.5C24.4853 11.5 26.5 9.48528 26.5 7C26.5 4.51472 24.4853 2.5 22 2.5C19.5147 2.5 17.5 4.51472 17.5 7C17.5 9.48528 19.5147 11.5 22 11.5Z" fill="#67A329" stroke="#F2F2F2"/>
<path d="M14.8008 5C15.4911 5 16.0508 4.44036 16.0508 3.75C16.0508 3.05964 15.4911 2.5 14.8008 2.5C14.1104 2.5 13.5508 3.05964 13.5508 3.75C13.5508 4.44036 14.1104 5 14.8008 5Z" stroke="#B5B5B5" stroke-width="2"/>
</svg>
