<svg width="31" height="30" viewBox="0 0 31 30" fill="none" xmlns="http://www.w3.org/2000/svg">
<path d="M15.4155 28.75L11.6728 25H6.68261C5.99646 25 5.40886 24.755 4.91982 24.265C4.43077 23.775 4.18667 23.1867 4.1875 22.5V5C4.1875 4.3125 4.43202 3.72375 4.92106 3.23375C5.4101 2.74375 5.99729 2.49917 6.68261 2.5H24.1484C24.8345 2.5 25.4221 2.745 25.9112 3.235C26.4002 3.725 26.6443 4.31334 26.6435 5V22.5C26.6435 23.1875 26.399 23.7763 25.9099 24.2663C25.4209 24.7563 24.8337 25.0008 24.1484 25H19.1581L15.4155 28.75ZM15.2907 21.25C15.7274 21.25 16.0967 21.0988 16.3986 20.7963C16.7005 20.4938 16.851 20.1242 16.8502 19.6875C16.8502 19.25 16.6992 18.88 16.3973 18.5775C16.0954 18.275 15.7265 18.1242 15.2907 18.125C14.8541 18.125 14.4848 18.2763 14.1829 18.5788C13.881 18.8813 13.7305 19.2508 13.7313 19.6875C13.7313 20.125 13.8822 20.495 14.1842 20.7975C14.4861 21.1 14.8549 21.2508 15.2907 21.25ZM14.1679 16.4375H16.4759C16.4759 16.0833 16.4917 15.7813 16.5233 15.5313C16.5549 15.2813 16.6223 15.0417 16.7254 14.8125C16.8294 14.5833 16.9591 14.37 17.1147 14.1725C17.2702 13.975 17.4939 13.73 17.7858 13.4375C18.5136 12.7083 19.0284 12.0988 19.3303 11.6088C19.6322 11.1188 19.7828 10.5617 19.7819 9.9375C19.7819 8.83334 19.4077 7.9425 18.6591 7.265C17.9106 6.5875 16.9022 6.24917 15.6338 6.25C14.4902 6.25 13.5184 6.53125 12.7183 7.09375C11.9182 7.65625 11.3618 8.4375 11.049 9.4375L13.1075 10.25C13.2531 9.6875 13.5442 9.23459 13.9808 8.89125C14.4174 8.54792 14.9269 8.37584 15.5091 8.375C16.0705 8.375 16.5383 8.52625 16.9126 8.82875C17.2868 9.13125 17.474 9.53209 17.474 10.0313C17.474 10.3854 17.3596 10.7604 17.1309 11.1563C16.9022 11.5521 16.5175 11.9896 15.9769 12.4688C15.6234 12.7604 15.3373 13.0471 15.1186 13.3288C14.8998 13.6104 14.7181 13.9071 14.5734 14.2188C14.4278 14.5313 14.3239 14.8596 14.2615 15.2038C14.1991 15.5479 14.1679 15.9592 14.1679 16.4375Z" fill="#67A329"/>
</svg>
