<svg width="51" height="50" viewBox="0 0 51 50" fill="none" xmlns="http://www.w3.org/2000/svg">
<path d="M27 22.5C26 22.25 25 21.75 24.25 21C23.5 20.75 23.25 20 23.25 19.5C23.25 19 23.5 18.25 24 18C24.75 17.5 25.5 17 26.25 17.25C27.75 17.25 29 18 29.75 19L32 16C31.25 15.25 30.5 14.75 29.75 14.25C29 13.75 28 13.5 27 13.5V10H24V13.5C22.75 13.75 21.5 14.5 20.5 15.5C19.5 16.75 18.75 18.25 19 19.75C19 21.25 19.5 22.75 20.5 23.75C21.75 25 23.5 25.75 25 26.5C25.75 26.75 26.75 27.25 27.5 27.75C28 28.25 28.25 29 28.25 29.75C28.25 30.5 28 31.25 27.5 32C26.75 32.75 25.75 33 25 33C24 33 22.75 32.75 22 32C21.25 31.5 20.5 30.75 20 30L17.5 32.75C18.25 33.75 19 34.5 20 35.25C21.25 36 22.75 36.75 24.25 36.75V40H27V36.25C28.5 36 29.75 35.25 30.75 34.25C32 33 32.75 31 32.75 29.25C32.75 27.75 32.25 26 31 25C29.75 23.75 28.5 23 27 22.5ZM25.5 5C14.5 5 5.5 14 5.5 25C5.5 36 14.5 45 25.5 45C36.5 45 45.5 36 45.5 25C45.5 14 36.5 5 25.5 5ZM25.5 42.25C16 42.25 8.25 34.5 8.25 25C8.25 15.5 16 7.75 25.5 7.75C35 7.75 42.75 15.5 42.75 25C42.75 34.5 35 42.25 25.5 42.25Z" fill="#67A329"/>
</svg>
