<svg width="28" height="26" viewBox="0 0 28 26" fill="none" xmlns="http://www.w3.org/2000/svg">
<path d="M6 12.8333C6 13.4267 5.82405 14.0067 5.49441 14.5C5.16476 14.9934 4.69623 15.3779 4.14805 15.6049C3.59987 15.832 2.99667 15.8914 2.41473 15.7757C1.83279 15.6599 1.29824 15.3742 0.878681 14.9546C0.459124 14.5351 0.173401 14.0005 0.0576455 13.4186C-0.0581101 12.8366 0.00129985 12.2334 0.228363 11.6853C0.455426 11.1371 0.839943 10.6685 1.33329 10.3389C1.82664 10.0093 2.40666 9.83331 3 9.83331C3.79565 9.83331 4.55871 10.1494 5.12132 10.712C5.68393 11.2746 6 12.0377 6 12.8333Z" fill="#333333"/>
<path d="M17 12.8333C17 13.4267 16.8241 14.0067 16.4944 14.5C16.1648 14.9934 15.6962 15.3779 15.1481 15.6049C14.5999 15.832 13.9967 15.8914 13.4147 15.7757C12.8328 15.6599 12.2982 15.3742 11.8787 14.9546C11.4591 14.5351 11.1734 14.0005 11.0576 13.4186C10.9419 12.8366 11.0013 12.2334 11.2284 11.6853C11.4554 11.1371 11.8399 10.6685 12.3333 10.3389C12.8266 10.0093 13.4067 9.83331 14 9.83331C14.7957 9.83331 15.5587 10.1494 16.1213 10.712C16.6839 11.2746 17 12.0377 17 12.8333Z" fill="#333333"/>
<path d="M28 12.8333C28 13.4267 27.8241 14.0067 27.4944 14.5C27.1648 14.9934 26.6962 15.3779 26.1481 15.6049C25.5999 15.832 24.9967 15.8914 24.4147 15.7757C23.8328 15.6599 23.2982 15.3742 22.8787 14.9546C22.4591 14.5351 22.1734 14.0005 22.0576 13.4186C21.9419 12.8366 22.0013 12.2334 22.2284 11.6853C22.4554 11.1371 22.8399 10.6685 23.3333 10.3389C23.8266 10.0093 24.4067 9.83331 25 9.83331C25.7957 9.83331 26.5587 10.1494 27.1213 10.712C27.6839 11.2746 28 12.0377 28 12.8333Z" fill="#333333"/>
</svg>
