<svg width="41" height="40" viewBox="0 0 41 40" fill="none" xmlns="http://www.w3.org/2000/svg">
<g clip-path="url(#clip0_307_2)">
<path d="M7.64288 1.33333C7.37782 1.33334 7.11799 1.40748 6.89245 1.54745C6.66692 1.68743 6.48458 1.88771 6.36583 2.12591L0.651951 13.6125C0.528379 13.8598 0.478547 14.1378 0.508452 14.4129C0.538356 14.688 0.646723 14.9486 0.82051 15.1632L19.3906 38.1365C19.5246 38.3021 19.6936 38.4356 19.8853 38.5274C20.0771 38.6191 20.2868 38.6667 20.4991 38.6667C20.7115 38.6667 20.9212 38.6191 21.1129 38.5274C21.3047 38.4356 21.4737 38.3021 21.6076 38.1365L40.1777 15.1632C40.352 14.9489 40.4608 14.6884 40.4913 14.4133C40.5217 14.1382 40.4723 13.8601 40.3491 13.6125L34.6353 2.12591C34.5163 1.88728 34.3335 1.6867 34.1074 1.5467C33.8813 1.40669 33.6209 1.33281 33.3553 1.33333H7.64288ZM4.24027 12.82L8.52568 4.20499H14.3824L12.2397 12.82H4.24027ZM4.92879 15.6916H12.3083L16.9165 30.5208L4.92879 15.6916ZM15.2995 15.6916H25.6987L20.4991 32.4133L15.2995 15.6916ZM28.6928 15.6916H36.0694L24.0817 30.5208L28.6928 15.6916ZM36.758 12.82H28.7585L26.6158 4.20499H32.4726L36.758 12.82ZM25.813 12.82H15.1852L17.3279 4.20499H23.6703L25.813 12.82Z" fill="#67A329"/>
</g>
<defs>
<clipPath id="clip0_307_2">
<rect width="40" height="40" fill="white" transform="translate(0.5)"/>
</clipPath>
</defs>
</svg>
