<svg width="20" height="21" viewBox="0 0 20 21" fill="none" xmlns="http://www.w3.org/2000/svg">
<path d="M2.72391 2.55294C2.63778 2.5098 2.54103 2.49246 2.44528 2.503C2.34953 2.51355 2.25887 2.55152 2.18419 2.61236C2.10951 2.67321 2.05399 2.75432 2.02432 2.84597C1.99464 2.93761 1.99207 3.03587 2.01691 3.12894L3.51491 8.74694C3.53966 8.83958 3.59053 8.92315 3.66145 8.98769C3.73237 9.05223 3.82035 9.09501 3.91491 9.11094L10.7699 10.2529C11.0489 10.2999 11.0489 10.6999 10.7699 10.7469L3.91591 11.8889C3.82117 11.9047 3.73297 11.9474 3.66186 12.0119C3.59075 12.0765 3.53973 12.1602 3.51491 12.2529L2.01691 17.8709C1.99207 17.964 1.99464 18.0623 2.02432 18.1539C2.05399 18.2456 2.10951 18.3267 2.18419 18.3875C2.25887 18.4484 2.34953 18.4863 2.44528 18.4969C2.54103 18.5074 2.63778 18.4901 2.72391 18.4469L17.7239 10.9469C17.8069 10.9054 17.8766 10.8415 17.9253 10.7626C17.9741 10.6837 17.9999 10.5927 17.9999 10.4999C17.9999 10.4072 17.9741 10.3162 17.9253 10.2373C17.8766 10.1583 17.8069 10.0945 17.7239 10.0529L2.72391 2.55294Z" fill="white"/>
</svg>
