<svg width="51" height="50" viewBox="0 0 51 50" fill="none" xmlns="http://www.w3.org/2000/svg">
<g clip-path="url(#clip0_307_5)">
<path d="M0.5 9.375V12.5H30.1875V35.9375H20.5688C19.8719 33.2516 17.4562 31.25 14.5625 31.25C11.6687 31.25 9.25313 33.2516 8.55625 35.9375H6.75V28.125H3.625V39.0625H8.55625C9.25313 41.7484 11.6687 43.75 14.5625 43.75C17.4562 43.75 19.8719 41.7484 20.5688 39.0625H33.5563C34.2531 41.7484 36.6688 43.75 39.5625 43.75C42.4562 43.75 44.8719 41.7484 45.5687 39.0625H50.5V26.3188L50.4016 26.0734L47.2766 16.6984L46.9375 15.625H33.3125V9.375H0.5ZM2.0625 15.625V18.75H16.125V15.625H2.0625ZM33.3125 18.75H44.6891L47.375 26.7578V35.9375H45.5687C44.8719 33.2516 42.4562 31.25 39.5625 31.25C36.6688 31.25 34.2531 33.2516 33.5563 35.9375H33.3125V18.75ZM3.625 21.875V25H13V21.875H3.625ZM14.5625 34.375C16.3078 34.375 17.6875 35.7547 17.6875 37.5C17.6875 39.2453 16.3078 40.625 14.5625 40.625C12.8172 40.625 11.4375 39.2453 11.4375 37.5C11.4375 35.7547 12.8172 34.375 14.5625 34.375ZM39.5625 34.375C41.3078 34.375 42.6875 35.7547 42.6875 37.5C42.6875 39.2453 41.3078 40.625 39.5625 40.625C37.8172 40.625 36.4375 39.2453 36.4375 37.5C36.4375 35.7547 37.8172 34.375 39.5625 34.375Z" fill="#67A329"/>
</g>
<defs>
<clipPath id="clip0_307_5">
<rect width="50" height="50" fill="white" transform="translate(0.5)"/>
</clipPath>
</defs>
</svg>
