<svg width="30" height="30" viewBox="0 0 30 30" fill="none" xmlns="http://www.w3.org/2000/svg">
<path d="M2.5 2.5H27.5V5H25V27.6L22.9688 25.975L20.6675 24.135L18.6425 25.935L17.8125 26.6725L16.9825 25.935L15 24.1712L13.0175 25.9338L12.1875 26.6712L11.3575 25.9338L9.3325 24.1337L7.03125 25.975L5 27.6V5H2.5V2.5ZM7.5 5V22.4L8.59375 21.525L9.4175 20.865L10.205 21.565L12.1875 23.3275L14.17 21.565L15 20.8275L15.83 21.565L17.8125 23.3275L19.795 21.565L20.5825 20.865L21.4062 21.5238L22.5 22.3988V5H7.5ZM10 8.75H20V11.25H10V8.75ZM12.5 13.75H11.25V16.25H18.75V13.75H12.5Z" fill="#333333"/>
</svg>
