<svg width="24" height="24" viewBox="0 0 24 24" fill="none" xmlns="http://www.w3.org/2000/svg">
<path d="M22.92 4.2425C22.15 4.63493 21.32 4.89282 20.46 5.01616C21.34 4.4219 22.02 3.48005 22.34 2.34759C21.51 2.90821 20.59 3.30065 19.62 3.5249C18.83 2.56062 17.72 2 16.46 2C14.11 2 12.19 4.1528 12.19 6.81016C12.19 7.19138 12.23 7.56139 12.3 7.90898C8.74 7.70716 5.57 5.78982 3.46 2.88579C3.09 3.59217 2.88 4.4219 2.88 5.29647C2.88 6.96713 3.63 8.44718 4.79 9.28812C4.08 9.28812 3.42 9.06387 2.84 8.72749V8.76113C2.84 11.0933 4.32 13.0443 6.28 13.4816C5.65073 13.6747 4.9901 13.7015 4.35 13.5601C4.62161 14.5159 5.15354 15.3523 5.87102 15.9516C6.5885 16.5509 7.45545 16.8831 8.35 16.9014C6.83363 18.2474 4.954 18.9749 3.02 18.9645C2.68 18.9645 2.34 18.9421 2 18.8972C3.9 20.2651 6.16 21.0612 8.58 21.0612C16.46 21.0612 20.79 13.7283 20.79 7.37078C20.79 7.15774 20.79 6.95592 20.78 6.74288C21.62 6.07013 22.34 5.21798 22.92 4.2425Z" fill="#F2F2F2"/>
</svg>
