<svg width="24" height="25" viewBox="0 0 24 25" fill="none" xmlns="http://www.w3.org/2000/svg">
<path d="M19.1643 20.047C17.5233 17.547 15.4953 16.762 13.0003 16.563V18C13.0003 18.534 12.7923 19.036 12.4143 19.414C11.6583 20.17 10.3373 20.165 9.59133 19.419L3.29833 13.212C3.20384 13.119 3.12881 13.0081 3.07759 12.8857C3.02638 12.7634 3 12.6321 3 12.4995C3 12.3669 3.02638 12.2356 3.07759 12.1133C3.12881 11.991 3.20384 11.8801 3.29833 11.787L9.58633 5.58402C10.3403 4.82902 11.6593 4.82802 12.4153 5.58502C12.7923 5.96302 13.0003 6.46502 13.0003 6.99902V8.70302C17.6193 9.63602 21.0003 13.7 21.0003 18.499V19.499C21.0009 19.7146 20.9317 19.9245 20.8032 20.0975C20.6746 20.2705 20.4936 20.3973 20.2871 20.4589C20.0805 20.5206 19.8596 20.5138 19.6572 20.4395C19.4549 20.3653 19.282 20.2276 19.1643 20.047ZM12.0233 14.511C14.2303 14.567 16.6613 14.905 18.7813 16.632C18.3987 15.0319 17.5312 13.5891 16.2973 12.5008C15.0635 11.4125 13.5237 10.7319 11.8883 10.552C11.3843 10.496 11.0003 10.5 11.0003 10.5V7.00302L5.42433 12.499L11.0003 17.999V14.5L12.0233 14.511Z" fill="black"/>
</svg>
