<svg width="20" height="20" viewBox="0 0 20 20" fill="none" xmlns="http://www.w3.org/2000/svg">
<path d="M10 17.5C8.62167 17.5 7.5 16.3783 7.5 15L7.54417 12.4558L5.015 12.5C3.62167 12.5 2.5 11.3783 2.5 10C2.5 8.62167 3.62167 7.5 5 7.5L7.54417 7.455L7.5 5.015C7.5 3.62167 8.62167 2.5 10 2.5C11.3783 2.5 12.5 3.62167 12.5 5L12.5458 7.455L15.015 7.5C16.3783 7.5 17.5 8.62167 17.5 10C17.5 11.3783 16.3783 12.5 15 12.5L12.5458 12.4558L12.5 15.015C12.5 16.3783 11.3783 17.5 10 17.5ZM9.16667 10.8333V15.015C9.16667 15.4592 9.54083 15.8333 10 15.8333C10.4592 15.8333 10.8333 15.4592 10.8333 15V10.8333H15.015C15.4592 10.8333 15.8333 10.4592 15.8333 10C15.8333 9.54083 15.4592 9.16667 15 9.16667H10.8333V5C10.8333 4.52583 10.4592 4.16667 10 4.16667C9.54083 4.16667 9.16667 4.54083 9.16667 5V9.16667H5C4.52583 9.16667 4.16667 9.54083 4.16667 10C4.16667 10.4592 4.54083 10.8333 5 10.8333H9.16667Z" fill="#67A329"/>
</svg>
