<svg width="30" height="30" viewBox="0 0 30 30" fill="none" xmlns="http://www.w3.org/2000/svg">
<path d="M26.25 11.25H23.0625C22.6875 11.25 22.3125 11.0625 21.9375 10.875L19.5 8.4375C19.125 7.875 18.375 7.5 17.4375 7.5H16.875C18.9375 7.5 20.625 5.8125 20.625 3.75C20.625 1.6875 18.9375 0 16.875 0C14.8125 0 13.125 1.6875 13.125 3.75C13.125 5.0625 13.875 6.375 15 6.9375L14.625 7.5H10.875C8.8125 7.5 6.5625 8.4375 5.25 10.3125L4.125 11.8125C3.375 12.5625 3.75 13.6875 4.5 14.25C5.25 14.625 6.1875 14.4375 6.75 13.6875L7.6875 12.375C8.25 11.625 9 11.25 9.9375 11.25H11.4375L10.125 14.25C9.5625 15.375 9.375 16.5 9.375 17.8125V21.5625C9.375 22.125 9 22.5 8.4375 22.5H3.75C2.625 22.5 1.875 23.25 1.875 24.375C1.875 25.5 2.625 26.25 3.75 26.25H10.3125C11.8125 26.25 13.125 24.9375 13.125 23.4375V18.75L20.25 27.1875C21.375 28.875 23.4375 30 25.5 30H27.1875L17.0625 17.4375C16.5 16.6875 16.6875 15.9375 17.0625 15L18.1875 12.1875L19.5 13.6875C20.25 14.4375 21.375 15 22.5 15H26.25C27.375 15 28.125 14.25 28.125 13.125C28.125 12 27.375 11.25 26.25 11.25Z" fill="#333333"/>
</svg>
